<svg xmlns="http://www.w3.org/2000/svg" width="23" height="21"><defs><clipPath id="a"><path clip-rule="evenodd" d="M-443.6-1462.15h1368v2739.8h-1368z"/></clipPath></defs><g clip-path="url(#a)"><path fill="none" stroke="#979797" stroke-linecap="round" stroke-linejoin="round" d="M11.923 4.053c.11-.164.207-.319.312-.467.708-.996 1.596-1.776 2.725-2.265a5.594 5.594 0 0 1 2.72-.442c1.403.115 2.615.652 3.6 1.663.839.858 1.327 1.894 1.502 3.078.108.728.069 1.458.007 2.186a8.935 8.935 0 0 1-.464 2.217c-.39 1.107-1.027 2.062-1.801 2.933-.788.886-1.668 1.678-2.556 2.46-1.544 1.359-3.092 2.713-4.633 4.076-.453.4-.888.822-1.33 1.234l-.08.074c-.127-.118-.251-.233-.374-.35-1.383-1.303-2.813-2.556-4.25-3.8-1.117-.968-2.248-1.922-3.294-2.97-.7-.703-1.346-1.45-1.853-2.308A8.007 8.007 0 0 1 1.148 8.52a11.65 11.65 0 0 1-.139-2.295c.095-2.34 1.537-4.322 3.695-5.033C7.027.426 9.07.963 10.822 2.647c.407.391.746.838 1.042 1.317l.059.089" stroke-width=".95"/></g></svg>