<svg width="13" height="12" xmlns="http://www.w3.org/2000/svg"><path d="M6.499 2.614c.055-.083.104-.16.157-.235.357-.502.804-.895 1.372-1.142.437-.19.894-.261 1.369-.222.706.058 1.317.328 1.813.837.422.433.668.955.756 1.552.054.367.035.734.003 1.102a4.506 4.506 0 0 1-.233 1.116c-.196.558-.517 1.04-.907 1.478-.397.447-.84.846-1.287 1.24-.777.685-1.556 1.367-2.332 2.054-.228.202-.447.415-.67.622l-.04.037-.188-.176a68.036 68.036 0 0 0-2.14-1.915c-.562-.488-1.132-.969-1.658-1.497-.353-.354-.678-.73-.933-1.163a4.037 4.037 0 0 1-.507-1.437 5.876 5.876 0 0 1-.07-1.157c.049-1.179.774-2.178 1.86-2.536 1.17-.386 2.199-.115 3.08.734.205.197.376.422.525.663l.03.045" stroke="#979797" fill="none"/></svg>