<svg width="153" height="153" xmlns="http://www.w3.org/2000/svg" xmlns:xlink="http://www.w3.org/1999/xlink"><defs><circle id="a" cx="76.448" cy="76.448" r="76.448"/><path d="M5 0h65.39a5 5 0 0 1 5 5v40.381a5 5 0 0 1-5 5H5a5 5 0 0 1-5-5V5a5 5 0 0 1 5-5z" id="c"/></defs><g fill="none" fill-rule="evenodd"><mask id="b" fill="#fff"><use xlink:href="#a"/></mask><use fill="#FFF" xlink:href="#a"/><path fill="#EDEDED" mask="url(#b)" d="M39.61 97.368l50.111 54.299 27.87-2.083 16.93-13.323 6.207-11.744 4.576-10.758 3.716-4.92 3.983-5.155-39.79-51.415z"/><g transform="translate(39 49.496)"><mask id="d" fill="#fff"><use xlink:href="#c"/></mask><use fill="#252B3C" xlink:href="#c"/><path d="M-9 17.484c29.71 22.501 61.632 22.501 95.769 0 34.136-22.501 27.198-32.941-20.813-31.32l-71.072 2.68L-9 17.483z" fill="#3B424F" mask="url(#d)"/></g><path d="M76.5 70.496a4.5 4.5 0 0 1 4.5 4.5v11.453a4.5 4.5 0 1 1-9 0V74.996a4.5 4.5 0 0 1 4.5-4.5z" fill="#ECF0F6"/><circle fill="#252B3C" cx="76.598" cy="85.094" r="3.598"/></g></svg>