<svg version="1.1" id="Layer_1" xmlns="http://www.w3.org/2000/svg" x="0" y="0" viewBox="0 0 61 63" xml:space="preserve"><style>.st0{fill:#666}</style><path class="st0" d="M38.2 31.5c0 4.3-3.5 7.7-7.7 7.7s-7.7-3.5-7.7-7.7c0-4.3 3.5-7.7 7.7-7.7s7.7 3.4 7.7 7.7z"/><path class="st0" d="M48.6 17.8c-.8-2-2.4-3.6-4.4-4.4-3-1.2-10.3-.9-13.7-.9s-10.6-.3-13.7.9c-2 .8-3.6 2.4-4.4 4.4-1.2 3-.9 10.3-.9 13.7 0 3.4-.3 10.6.9 13.7.8 2 2.4 3.6 4.4 4.4 3 1.2 10.3.9 13.7.9s10.6.3 13.7-.9c2-.8 3.6-2.4 4.4-4.4 1.2-3 .9-10.3.9-13.7 0-3.4.3-10.6-.9-13.7zM30.5 43.4c-6.6 0-11.9-5.3-11.9-11.9 0-6.6 5.3-11.9 11.9-11.9 6.6 0 11.9 5.3 11.9 11.9 0 6.6-5.3 11.9-11.9 11.9zm12.4-21.5c-1.5 0-2.8-1.2-2.8-2.8 0-1.5 1.2-2.8 2.8-2.8 1.5 0 2.8 1.2 2.8 2.8-.1 1.6-1.3 2.8-2.8 2.8z"/><path class="st0" d="M51.8 0H9.2C4.1 0 0 4.1 0 9.2v44.7c0 5 4.1 9.1 9.2 9.1h42.7c5.1 0 9.2-4.1 9.2-9.2V9.2C61 4.1 56.9 0 51.8 0zm1.7 41.1c-.2 3.7-1 7-3.7 9.7-2.7 2.7-6 3.6-9.7 3.7-3.8.2-15.3.2-19.1 0-3.7-.2-7-1-9.7-3.7-2.7-2.7-3.6-6-3.7-9.7-.2-3.8-.2-15.3 0-19.1.2-3.7 1-7 3.7-9.7 2.7-2.7 6-3.6 9.7-3.7 3.8-.2 15.3-.2 19.1 0 3.7.2 7 1 9.7 3.8 2.7 2.7 3.6 6 3.7 9.7.2 3.7.2 15.1 0 19z"/></svg>