<?xml version="1.0" encoding="utf-8" ?>
<svg xmlns="http://www.w3.org/2000/svg" xmlns:xlink="http://www.w3.org/1999/xlink" width="23" height="21">
	<defs>
		<clipPath id="clip_0">
			<rect x="-443.60001" y="-1462.15" width="1368" height="2739.8" clip-rule="evenodd"/>
		</clipPath>
	</defs>
	<g clip-path="url(#clip_0)">
		<path fill="none" stroke="rgb(151,151,151)" stroke-width="1" stroke-linecap="round" stroke-linejoin="round" transform="matrix(0.95 0 0 0.95 1 0.849976)" d="M11.4976 3.37121C11.6127 3.19882 11.7154 3.03627 11.8266 2.87983C12.5717 1.83209 13.5066 1.01008 14.695 0.495626C15.6088 0.100034 16.5647 -0.0504031 17.5571 0.0309432C19.0344 0.152018 20.3101 0.717043 21.3482 1.7806C22.2303 2.68432 22.7444 3.77483 22.9289 5.02138C23.0423 5.78784 23.0011 6.55572 22.936 7.32263C22.8682 8.11961 22.7128 8.89922 22.447 9.65542C22.0375 10.821 21.3661 11.826 20.5512 12.743C19.7221 13.6761 18.7963 14.5093 17.8611 15.3324C16.2359 16.7629 14.6065 18.1887 12.9847 19.623C12.5076 20.045 12.05 20.4888 11.5835 20.9226C11.5576 20.9466 11.5314 20.9704 11.4991 21C11.3661 20.8756 11.2357 20.7545 11.1061 20.6324C9.65011 19.2597 8.14568 17.9412 6.63327 16.6314C5.45652 15.6124 4.26618 14.6081 3.1654 13.5049C2.42778 12.7656 1.74831 11.9794 1.21498 11.0762C0.664746 10.1444 0.323788 9.13942 0.155265 8.07279C0.0287214 7.27174 -0.0232924 6.46536 0.00966469 5.65642C0.109932 3.19448 1.62744 1.10781 3.89935 0.359248C6.34372 -0.446146 8.49521 0.11875 10.3394 1.89212C10.7669 2.30315 11.1238 2.77337 11.4355 3.27759C11.4523 3.30476 11.4707 3.33088 11.4976 3.37121"/>
	</g>

</svg>