<?xml version="1.0" encoding="utf-8"?>
<!-- Generator: Adobe Illustrator 21.1.0, SVG Export Plug-In . SVG Version: 6.00 Build 0)  -->
<svg version="1.1" id="Layer_1" xmlns="http://www.w3.org/2000/svg" xmlns:xlink="http://www.w3.org/1999/xlink" x="0px" y="0px"
	 viewBox="0 0 61 63" style="enable-background:new 0 0 61 63;" xml:space="preserve">
<style type="text/css">
	.st0{fill:#666666;}
</style>
<path class="st0" d="M51.8,0H9.2C4.1,0,0,4.1,0,9.2v44.7C0,58.9,4.1,63,9.2,63h42.7c5.1,0,9.2-4.1,9.2-9.2V9.2C61,4.1,56.9,0,51.8,0
	z M51.1,15.4h-4.5c-3.6,0-4.3,1.7-4.3,4.2v5.9h8l-1.1,8.6h-7v21.6h-8.9V34.1h-7.2v-8.6h7.2v-6.8c0-7.4,4.5-11.4,11.1-11.4
	c3.1,0,5.8,0.2,6.6,0.3V15.4z"/>
</svg>
