<?xml version="1.0" encoding="utf-8"?>
<!-- Generator: Adobe Illustrator 22.1.0, SVG Export Plug-In . SVG Version: 6.00 Build 0)  -->
<svg version="1.1" id="Layer_1" xmlns="http://www.w3.org/2000/svg" xmlns:xlink="http://www.w3.org/1999/xlink" x="0px" y="0px"
	 viewBox="0 0 21.4 21.4" style="enable-background:new 0 0 21.4 21.4;" xml:space="preserve">
<title>search</title>
<path d="M13.4,15.4c-1.4,1-3.1,1.6-4.9,1.6C3.8,17,0,13.2,0,8.5S3.8,0,8.5,0S17,3.8,17,8.5c0,1.8-0.6,3.5-1.6,4.9L21,19
	c0.5,0.5,0.5,1.4,0,2l0,0c-0.5,0.5-1.4,0.5-2,0L13.4,15.4L13.4,15.4z M8.5,15c3.6,0,6.5-2.9,6.5-6.5S12.1,2,8.5,2S2,4.9,2,8.5
	S4.9,15,8.5,15L8.5,15z"/>
</svg>
