<?xml version="1.0" encoding="UTF-8"?>
<svg width="13px" height="12px" viewBox="0 0 13 12" version="1.1" xmlns="http://www.w3.org/2000/svg" xmlns:xlink="http://www.w3.org/1999/xlink">
    <!-- Generator: Sketch 53.2 (72643) - https://sketchapp.com -->
    <title>Fill 1</title>
    <desc>Created with Sketch.</desc>
    <g id="Page-1" stroke="none" stroke-width="1" fill="none" fill-rule="evenodd">
        <g id="Sidebar-Logged-In" transform="translate(-366.000000, -136.000000)" stroke="#979797">
            <g id="Items" transform="translate(-59.000000, 18.000000)">
                <g id="Fill-1">
                    <path d="M431.49884,120.613895 C431.553884,120.531364 431.602999,120.453551 431.656204,120.378655 C432.012546,119.877074 432.45969,119.483556 433.028029,119.23727 C433.465083,119.047889 433.922255,118.975871 434.396854,119.014813 C435.103394,119.072776 435.713533,119.343269 436.210008,119.852423 C436.631885,120.285059 436.877759,120.807119 436.965992,121.403879 C437.020245,121.770805 437.000537,122.138409 436.969373,122.50555 C436.936985,122.887087 436.862624,123.260312 436.735541,123.622326 C436.539666,124.180329 436.218547,124.661442 435.828831,125.100448 C435.432292,125.54714 434.989535,125.946001 434.542268,126.340053 C433.764984,127.024882 432.985726,127.70746 432.210055,128.394108 C431.981895,128.596097 431.763055,128.808587 431.53993,129.016248 C431.527559,129.027756 431.515033,129.03912 431.499569,129.0533 C431.435956,128.993745 431.373575,128.935752 431.311637,128.877307 C430.615269,128.22019 429.895761,127.588977 429.172432,126.961946 C428.609641,126.474082 428.040346,125.993297 427.513888,125.465165 C427.161111,125.111247 426.836149,124.734868 426.581079,124.3025 C426.317922,123.856425 426.154855,123.375301 426.074257,122.864677 C426.013736,122.481188 425.98886,122.09515 426.004622,121.70789 C426.052576,120.529289 426.778341,119.530338 427.864908,119.171982 C429.033953,118.786417 430.062928,119.056849 430.944947,119.905813 C431.149371,120.102582 431.320083,120.32769 431.469144,120.569074 C431.47718,120.582083 431.486006,120.594588 431.49884,120.613895"></path>
                </g>
            </g>
        </g>
    </g>
</svg>