<?xml version="1.0" encoding="utf-8"?>
<!-- Generator: Adobe Illustrator 21.1.0, SVG Export Plug-In . SVG Version: 6.00 Build 0)  -->
<svg version="1.1" id="Layer_1" xmlns="http://www.w3.org/2000/svg" xmlns:xlink="http://www.w3.org/1999/xlink" x="0px" y="0px"
	 viewBox="0 0 61 63" style="enable-background:new 0 0 61 63;" xml:space="preserve">
<style type="text/css">
	.st0{fill:#666666;}
</style>
<g>
	<path class="st0" d="M38.2,31.5c0,4.3-3.5,7.7-7.7,7.7s-7.7-3.5-7.7-7.7c0-4.3,3.5-7.7,7.7-7.7S38.2,27.2,38.2,31.5z"/>
	<path class="st0" d="M48.6,17.8c-0.8-2-2.4-3.6-4.4-4.4c-3-1.2-10.3-0.9-13.7-0.9s-10.6-0.3-13.7,0.9c-2,0.8-3.6,2.4-4.4,4.4
		c-1.2,3-0.9,10.3-0.9,13.7c0,3.4-0.3,10.6,0.9,13.7c0.8,2,2.4,3.6,4.4,4.4c3,1.2,10.3,0.9,13.7,0.9s10.6,0.3,13.7-0.9
		c2-0.8,3.6-2.4,4.4-4.4c1.2-3,0.9-10.3,0.9-13.7C49.5,28.1,49.8,20.9,48.6,17.8z M30.5,43.4c-6.6,0-11.9-5.3-11.9-11.9
		c0-6.6,5.3-11.9,11.9-11.9c6.6,0,11.9,5.3,11.9,11.9C42.4,38.1,37.1,43.4,30.5,43.4z M42.9,21.9c-1.5,0-2.8-1.2-2.8-2.8
		c0-1.5,1.2-2.8,2.8-2.8c1.5,0,2.8,1.2,2.8,2.8C45.6,20.7,44.4,21.9,42.9,21.9z"/>
	<path class="st0" d="M51.8,0H9.2C4.1,0,0,4.1,0,9.2v44.7C0,58.9,4.1,63,9.2,63h42.7c5.1,0,9.2-4.1,9.2-9.2V9.2
		C61,4.1,56.9,0,51.8,0z M53.5,41.1c-0.2,3.7-1,7-3.7,9.7c-2.7,2.7-6,3.6-9.7,3.7c-3.8,0.2-15.3,0.2-19.1,0c-3.7-0.2-7-1-9.7-3.7
		c-2.7-2.7-3.6-6-3.7-9.7c-0.2-3.8-0.2-15.3,0-19.1c0.2-3.7,1-7,3.7-9.7c2.7-2.7,6-3.6,9.7-3.7c3.8-0.2,15.3-0.2,19.1,0
		c3.7,0.2,7,1,9.7,3.8c2.7,2.7,3.6,6,3.7,9.7C53.7,25.8,53.7,37.2,53.5,41.1z"/>
</g>
</svg>
